{
	"asset":{
		"generator":"Khronos glTF Blender I/O v4.4.56",
		"version":"2.0"
	},
	"scene":0,
	"scenes":[
		{
			"name":"Scene",
			"nodes":[
				0,
				1,
				2,
				3
			]
		}
	],
	"nodes":[
		{
			"mesh":0,
			"name":"Cube",
			"translation":[
				0.002155780792236328,
				0.8096344470977783,
				0.3734439015388489
			]
		},
		{
			"mesh":1,
			"name":"Cube.001",
			"translation":[
				0.002155780792236328,
				1.677666425704956,
				0.3734439015388489
			]
		},
		{
			"mesh":2,
			"name":"Plane",
			"translation":[
				-0.024893388152122498,
				1.9677098989486694,
				0.3926714062690735
			]
		},
		{
			"mesh":3,
			"name":"Cube.002",
			"translation":[
				0.002155780792236328,
				2.774433135986328,
				0.3734436631202698
			]
		}
	],
	"materials":[
		{
			"doubleSided":true,
			"name":"Bun",
			"pbrMetallicRoughness":{
				"baseColorFactor":[
					0.8004578351974487,
					0.1014840379357338,
					0.02882438525557518,
					1
				],
				"metallicFactor":0,
				"roughnessFactor":0.413385808467865
			}
		},
		{
			"doubleSided":true,
			"name":"Meat",
			"pbrMetallicRoughness":{
				"baseColorFactor":[
					0.08843882381916046,
					0.0018200207268819213,
					0,
					1
				],
				"metallicFactor":0,
				"roughnessFactor":0.5
			}
		},
		{
			"doubleSided":true,
			"name":"Cheeze",
			"pbrMetallicRoughness":{
				"baseColorFactor":[
					0.04944252222776413,
					0.8001416921615601,
					0,
					1
				],
				"metallicFactor":0,
				"roughnessFactor":0.27165353298187256
			}
		}
	],
	"meshes":[
		{
			"name":"Mesh",
			"primitives":[
				{
					"attributes":{
						"POSITION":0,
						"NORMAL":1
					},
					"indices":2,
					"material":0
				}
			]
		},
		{
			"name":"Mesh",
			"primitives":[
				{
					"attributes":{
						"POSITION":3,
						"NORMAL":4
					},
					"indices":5,
					"material":1
				}
			]
		},
		{
			"name":"Plane",
			"primitives":[
				{
					"attributes":{
						"POSITION":6,
						"NORMAL":7
					},
					"indices":8,
					"material":2
				}
			]
		},
		{
			"name":"Mesh",
			"primitives":[
				{
					"attributes":{
						"POSITION":9,
						"NORMAL":10
					},
					"indices":2,
					"material":0
				}
			]
		}
	],
	"accessors":[
		{
			"bufferView":0,
			"componentType":5126,
			"count":2562,
			"max":[
				2.7445831298828125,
				0.6627152562141418,
				2.7445831298828125
			],
			"min":[
				-2.7445831298828125,
				-0.5841471552848816,
				-2.7445831298828125
			],
			"type":"VEC3"
		},
		{
			"bufferView":1,
			"componentType":5126,
			"count":2562,
			"type":"VEC3"
		},
		{
			"bufferView":2,
			"componentType":5123,
			"count":15360,
			"type":"SCALAR"
		},
		{
			"bufferView":3,
			"componentType":5126,
			"count":3586,
			"max":[
				2.9671437740325928,
				0.28813064098358154,
				2.9671437740325928
			],
			"min":[
				-2.967144250869751,
				-0.2915821373462677,
				-2.9671437740325928
			],
			"type":"VEC3"
		},
		{
			"bufferView":4,
			"componentType":5126,
			"count":3586,
			"type":"VEC3"
		},
		{
			"bufferView":5,
			"componentType":5123,
			"count":21504,
			"type":"SCALAR"
		},
		{
			"bufferView":6,
			"componentType":5126,
			"count":792,
			"max":[
				2.7161173820495605,
				0.010368406772613525,
				2.7161178588867188
			],
			"min":[
				-2.7161178588867188,
				-0.5243261456489563,
				-2.7161173820495605
			],
			"type":"VEC3"
		},
		{
			"bufferView":7,
			"componentType":5126,
			"count":792,
			"type":"VEC3"
		},
		{
			"bufferView":8,
			"componentType":5123,
			"count":3876,
			"type":"SCALAR"
		},
		{
			"bufferView":9,
			"componentType":5126,
			"count":2562,
			"max":[
				2.7582345008850098,
				0.9961327314376831,
				2.7582345008850098
			],
			"min":[
				-2.7582345008850098,
				-0.8501893877983093,
				-2.7582342624664307
			],
			"type":"VEC3"
		},
		{
			"bufferView":10,
			"componentType":5126,
			"count":2562,
			"type":"VEC3"
		}
	],
	"bufferViews":[
		{
			"buffer":0,
			"byteLength":30744,
			"byteOffset":0,
			"target":34962
		},
		{
			"buffer":0,
			"byteLength":30744,
			"byteOffset":30744,
			"target":34962
		},
		{
			"buffer":0,
			"byteLength":30720,
			"byteOffset":61488,
			"target":34963
		},
		{
			"buffer":0,
			"byteLength":43032,
			"byteOffset":92208,
			"target":34962
		},
		{
			"buffer":0,
			"byteLength":43032,
			"byteOffset":135240,
			"target":34962
		},
		{
			"buffer":0,
			"byteLength":43008,
			"byteOffset":178272,
			"target":34963
		},
		{
			"buffer":0,
			"byteLength":9504,
			"byteOffset":221280,
			"target":34962
		},
		{
			"buffer":0,
			"byteLength":9504,
			"byteOffset":230784,
			"target":34962
		},
		{
			"buffer":0,
			"byteLength":7752,
			"byteOffset":240288,
			"target":34963
		},
		{
			"buffer":0,
			"byteLength":30744,
			"byteOffset":248040,
			"target":34962
		},
		{
			"buffer":0,
			"byteLength":30744,
			"byteOffset":278784,
			"target":34962
		}
	],
	"buffers":[
		{
			"byteLength":309528,
			"uri":"Hamburger.bin"
		}
	]
}
